<?xml version="1.0" encoding="UTF-8" standalone="no"?>
<!DOCTYPE svg PUBLIC "-//W3C//DTD SVG 1.1//EN" "http://www.w3.org/Graphics/SVG/1.1/DTD/svg11.dtd">
<svg xmlns="http://www.w3.org/2000/svg" xmlns:xlink="http://www.w3.org/1999/xlink" version="1.1" width="216pt" height="144pt" viewBox="0 0 216 144">
<g enable-background="new">
<path transform="matrix(1,0,0,-1,0,144)" d="M 38.1402 52.8347 C 35.2253 52.0206 33.1654 51.4993 31.9459 51.2595 C 30.7304 51.0191 29.6722 50.8961 28.7753 50.8961 C 25.3023 50.8961 22.4972 52.0736 20.3596 54.4215 C 18.222 56.77 17.153 59.8504 17.153 63.6627 C 17.153 65.56 17.4549 67.3053 18.055 68.904 C 18.6542 70.4968 19.5409 71.9141 20.7145 73.1494 C 21.8404 74.327 23.1384 75.2224 24.5988 75.8438 C 26.0586 76.4586 27.6233 76.7687 29.281 76.7687 C 30.7358 76.7687 32.1902 76.57 33.6506 76.1655 C 35.1048 75.7672 36.6018 75.1527 38.1402 74.3323 L 38.1402 68.9978 L 36.5652 68.9978 C 35.7517 70.8599 34.7715 72.2829 33.6192 73.2609 C 32.4666 74.2391 31.2103 74.7247 29.8437 74.7247 C 27.7792 74.7247 26.1054 73.8116 24.8335 71.9785 C 23.561 70.1512 22.9249 67.7271 22.9249 64.7053 C 22.9249 61.3902 23.5871 58.6964 24.9114 56.6354 C 26.2358 54.5678 27.9306 53.5374 30.0008 53.5374 C 30.4384 53.5374 30.9027 53.6017 31.4031 53.7364 C 31.9039 53.8651 32.4147 54.0587 32.9465 54.3104 L 32.9465 59.0947 C 32.9465 60.2663 32.7903 61.0155 32.472 61.3437 C 32.1593 61.6776 31.4867 61.8707 30.4696 61.9291 L 30.4696 63.7971 L 41.0443 63.7971 L 41.0443 61.9291 C 39.9336 61.8471 39.172 61.6133 38.7607 61.2147 C 38.3485 60.8224 38.1402 60.1254 38.1402 59.1299 Z M 42.6815 51.3587 L 42.6815 53.4025 C 43.2343 53.5487 43.672 53.8362 44.0059 54.2574 C 44.3347 54.6854 44.6681 55.4346 45.0014 56.524 L 50.3515 74.0577 C 50.4034 74.2626 50.4349 74.4146 50.4505 74.5143 C 50.4663 74.6079 50.4765 74.6898 50.4765 74.7604 C 50.4765 75.0002 50.4196 75.2406 50.3045 75.4804 C 50.1951 75.7202 50.0233 75.9722 49.7883 76.2361 L 55.3938 76.2361 L 61.6399 56.1433 C 61.9169 55.2764 62.2295 54.6208 62.5895 54.1755 C 62.9439 53.7307 63.3606 53.4728 63.8405 53.4025 L 63.8405 51.3587 L 54.1423 51.3587 L 54.1423 53.4025 C 54.815 53.4379 55.3102 53.5782 55.6336 53.8302 C 55.9514 54.0822 56.1135 54.4569 56.1135 54.9488 C 56.1135 55.095 56.0925 55.2827 56.0506 55.5049 C 56.0089 55.7274 55.9466 56.0086 55.8524 56.3542 L 54.9505 60.0729 L 48.1201 60.0729 L 47.3114 56.6583 C 47.2283 56.319 47.1764 56.0378 47.1444 55.8272 C 47.1135 55.6163 47.0979 55.4289 47.0979 55.2532 C 47.0979 54.6619 47.2595 54.2049 47.5778 53.8826 C 47.9007 53.5609 48.365 53.4025 48.9747 53.4025 L 49.0686 53.4025 L 49.0686 51.3587 Z M 48.8237 62.2514 L 54.1423 62.2514 L 51.5146 71.2054 Z M 67.0011 74.192 L 67.0011 76.2361 L 77.2988 76.2361 L 77.2988 74.192 C 76.3084 74.075 75.651 73.8405 75.3174 73.4777 C 74.9889 73.1205 74.8219 72.3943 74.8219 71.3109 L 74.8219 54.5505 C 74.8219 53.0631 74.77 51.9151 74.6705 51.1129 C 74.5665 50.3048 74.3995 49.5901 74.1654 48.9753 C 73.654 47.6286 72.8354 46.5979 71.6984 45.8892 C 70.562 45.1806 69.175 44.8234 67.5329 44.8234 C 66.2604 44.8234 65.2592 45.1046 64.5242 45.6664 C 63.7889 46.2231 63.4235 46.9843 63.4235 47.9449 C 63.4235 48.6122 63.6114 49.1567 63.9819 49.5848 C 64.3518 50.0119 64.8159 50.2282 65.3632 50.2282 C 65.7439 50.2282 66.0674 50.135 66.3384 49.9535 C 66.6043 49.7721 66.9382 49.3736 67.3393 48.7704 C 67.3869 48.6884 67.4487 48.5946 67.5218 48.4775 C 67.9187 47.8508 68.2835 47.5345 68.6222 47.5345 C 68.9352 47.5345 69.1594 47.6575 69.2844 47.9038 C 69.4148 48.1499 69.4774 48.6354 69.4774 49.3563 L 69.4774 71.3109 C 69.4774 72.3943 69.3111 73.1205 68.9822 73.4777 C 68.6483 73.8405 67.9915 74.075 67.0011 74.192 Z M 79.2539 51.3587 L 79.2539 53.4025 C 79.8066 53.5487 80.2446 53.8362 80.5785 54.2574 C 80.9073 54.6854 81.2407 55.4346 81.5743 56.524 L 86.9244 74.0577 C 86.9766 74.2626 87.0075 74.4146 87.0231 74.5143 C 87.0389 74.6079 87.0494 74.6898 87.0494 74.7604 C 87.0494 75.0002 86.9919 75.2406 86.8771 75.4804 C 86.7677 75.7202 86.5956 75.9722 86.3609 76.2361 L 91.9661 76.2361 L 98.2128 56.1433 C 98.4892 55.2764 98.8021 54.6208 99.1619 54.1755 C 99.5162 53.7307 99.9337 53.4728 100.4134 53.4025 L 100.4134 51.3587 L 90.7149 51.3587 L 90.7149 53.4025 C 91.3876 53.4379 91.8828 53.5782 92.2062 53.8302 C 92.524 54.0822 92.6858 54.4569 92.6858 54.9488 C 92.6858 55.095 92.6649 55.2827 92.6235 55.5049 C 92.5815 55.7274 92.5189 56.0086 92.425 56.3542 L 91.5233 60.0729 L 84.6924 60.0729 L 83.884 56.6583 C 83.8009 56.319 83.749 56.0378 83.7176 55.8272 C 83.6861 55.6163 83.6705 55.4289 83.6705 55.2532 C 83.6705 54.6619 83.8318 54.2049 84.1501 53.8826 C 84.473 53.5609 84.9373 53.4025 85.5476 53.4025 L 85.6417 53.4025 L 85.6417 51.3587 Z M 85.3963 62.2514 L 90.7149 62.2514 L 88.0869 71.2054 Z M 102.0926 51.3587 L 102.0926 53.4025 C 103.1613 53.5198 103.8915 53.8362 104.2773 54.3628 C 104.6636 54.8904 104.8558 56.0322 104.8558 57.795 L 104.8558 72.2358 C 104.3453 72.9332 103.8864 73.4369 103.4691 73.7351 C 103.0518 74.0401 102.619 74.192 102.1711 74.192 L 102.0926 74.192 L 102.0926 76.2361 L 108.235 76.2361 C 108.5318 76.2361 108.7407 76.195 108.8606 76.1131 C 108.9862 76.0368 109.1526 75.8551 109.3663 75.5683 L 120.7746 60.4182 L 120.7746 70.6785 C 120.7746 71.75 120.5614 72.5644 120.1286 73.1086 C 119.6957 73.6591 118.9811 74.022 117.9961 74.192 L 117.9961 76.2361 L 125.5561 76.2361 L 125.5561 74.192 C 124.5501 74.0106 123.8462 73.6654 123.4551 73.1614 C 123.0636 72.6576 122.8657 71.8322 122.8657 70.6785 L 122.8657 54.9782 C 122.8657 54.3515 122.8762 53.7012 122.9023 53.022 C 122.9287 52.3483 122.9703 51.6283 123.0171 50.8609 L 120.7746 50.8609 L 106.8894 69.1673 L 106.8894 57.795 C 106.8894 56.1492 107.1139 55.042 107.5671 54.4745 C 108.021 53.9062 108.902 53.5487 110.2056 53.4025 L 110.2056 51.3587 Z M 127.0684 51.3587 L 127.0684 53.4025 C 127.6211 53.5487 128.0591 53.8362 128.3927 54.2574 C 128.7215 54.6854 129.0549 55.4346 129.3883 56.524 L 134.7384 74.0577 C 134.7908 74.2626 134.822 74.4146 134.8373 74.5143 C 134.8534 74.6079 134.8639 74.6898 134.8639 74.7604 C 134.8639 75.0002 134.8064 75.2406 134.6916 75.4804 C 134.5819 75.7202 134.4101 75.9722 134.1751 76.2361 L 139.7806 76.2361 L 146.0268 56.1433 C 146.3037 55.2764 146.6167 54.6208 146.9764 54.1755 C 147.3307 53.7307 147.748 53.4728 148.2273 53.4025 L 148.2273 51.3587 L 138.5291 51.3587 L 138.5291 53.4025 C 139.2018 53.4379 139.6973 53.5782 140.0204 53.8302 C 140.3385 54.0822 140.5003 54.4569 140.5003 54.9488 C 140.5003 55.095 140.4794 55.2827 140.4374 55.5049 C 140.3957 55.7274 140.3334 56.0086 140.2396 56.3542 L 139.3373 60.0729 L 132.5069 60.0729 L 131.6982 56.6583 C 131.6154 56.319 131.5633 56.0378 131.5312 55.8272 C 131.5003 55.6163 131.485 55.4289 131.485 55.2532 C 131.485 54.6619 131.6463 54.2049 131.9647 53.8826 C 132.2875 53.5609 132.7518 53.4025 133.3621 53.4025 L 133.4554 53.4025 L 133.4554 51.3587 Z M 133.2105 62.2514 L 138.5291 62.2514 L 135.9014 71.2054 Z M 149.9071 51.3587 L 149.9071 53.4025 C 150.9755 53.5198 151.7057 53.8362 152.0912 54.3628 C 152.4773 54.8904 152.6703 56.0322 152.6703 57.795 L 152.6703 72.2358 C 152.1595 72.9332 151.7009 73.4369 151.2833 73.7351 C 150.8661 74.0401 150.4332 74.192 149.9851 74.192 L 149.9071 74.192 L 149.9071 76.2361 L 156.0492 76.2361 C 156.3463 76.2361 156.5552 76.195 156.6746 76.1131 C 156.7998 76.0368 156.9665 75.8551 157.1808 75.5683 L 168.5891 60.4182 L 168.5891 70.6785 C 168.5891 71.75 168.3757 72.5644 167.9426 73.1086 C 167.5103 73.6591 166.7954 74.022 165.8103 74.192 L 165.8103 76.2361 L 173.3706 76.2361 L 173.3706 74.192 C 172.3643 74.0106 171.6608 73.6654 171.2696 73.1614 C 170.8781 72.6576 170.6803 71.8322 170.6803 70.6785 L 170.6803 54.9782 C 170.6803 54.3515 170.6907 53.7012 170.7168 53.022 C 170.7432 52.3483 170.7843 51.6283 170.8316 50.8609 L 168.5891 50.8609 L 154.7039 69.1673 L 154.7039 57.795 C 154.7039 56.1492 154.9284 55.042 155.3817 54.4745 C 155.8355 53.9062 156.7165 53.5487 158.0199 53.4025 L 158.0199 51.3587 Z M 182.9906 57.5666 C 182.9906 55.9091 183.2097 54.8257 183.6479 54.3104 C 184.0861 53.7953 184.9252 53.5374 186.1662 53.5374 C 188.3092 53.5374 189.978 54.3864 191.1875 56.0906 C 192.3919 57.795 192.9966 60.1662 192.9966 63.1939 C 192.9966 66.6845 192.2513 69.3901 190.7651 71.3109 C 189.2792 73.2314 187.1989 74.192 184.5184 74.192 C 183.9603 74.192 183.5643 74.0631 183.335 73.8057 C 183.1056 73.5477 182.9906 73.1146 182.9906 72.5114 Z M 175.1698 51.3587 L 175.1698 53.4025 C 176.1497 53.5198 176.8014 53.7542 177.1353 54.1111 C 177.4636 54.4745 177.6305 55.1945 177.6305 56.2842 L 177.6305 71.3109 C 177.6305 72.3943 177.4636 73.1205 177.1353 73.4777 C 176.8014 73.8405 176.1497 74.075 175.1698 74.192 L 175.1698 76.2361 L 185.2957 76.2361 C 189.4827 76.2361 192.7888 75.1351 195.2127 72.9272 C 197.6374 70.7196 198.847 67.7095 198.847 63.9026 C 198.847 61.9586 198.4927 60.1373 197.778 58.4507 C 197.0637 56.7638 196.0472 55.3294 194.7229 54.1406 C 193.6434 53.1686 192.3919 52.4599 190.963 52.0206 C 189.5397 51.5812 187.7879 51.3587 185.7129 51.3587 Z " fill="#1f1a17"/>
<path transform="matrix(1,0,0,-1,0,144)" d="M 72.2271 28.2733 L 72.2271 31.2664 L 73.1636 31.2664 C 73.3416 30.4379 73.6954 29.7955 74.2329 29.3397 C 74.7675 28.8845 75.4353 28.6551 76.2304 28.6551 C 76.8101 28.6551 77.2914 28.8136 77.6676 29.1302 C 78.0466 29.4503 78.2359 29.8491 78.2359 30.3304 C 78.2359 31.0034 77.4692 31.7648 75.939 32.6078 C 75.5317 32.8397 75.2148 33.0205 74.994 33.1481 C 73.9159 33.7762 73.1863 34.3505 72.8045 34.8681 C 72.4195 35.3829 72.2271 35.9969 72.2271 36.7098 C 72.2271 37.7595 72.612 38.5855 73.3785 39.1884 C 74.1484 39.7911 75.2003 40.091 76.5357 40.091 C 77.1724 40.091 77.7807 40 78.3609 39.822 C 78.9406 39.6405 79.5149 39.3639 80.0836 38.99 L 80.0836 36.6109 L 79.2034 36.6109 C 79.0279 37.3637 78.6801 37.9604 78.1685 38.4046 C 77.6531 38.8485 77.0536 39.0725 76.3688 39.0725 C 75.8285 39.0725 75.3871 38.9333 75.0478 38.6592 C 74.7079 38.3817 74.5387 38.0285 74.5387 37.5979 C 74.5387 36.9334 75.3163 36.1976 76.8756 35.386 L 76.9346 35.352 C 77.0111 35.312 77.1299 35.2531 77.2914 35.168 C 78.171 34.7207 78.8193 34.3276 79.2405 33.9826 C 79.6819 33.6263 80.0212 33.2186 80.259 32.7688 C 80.4963 32.3189 80.6153 31.8521 80.6153 31.3659 C 80.6153 30.2114 80.2307 29.2861 79.4585 28.5962 C 78.6886 27.9054 77.6477 27.5607 76.3379 27.5607 C 75.7806 27.5607 75.1609 27.6199 74.4761 27.7384 C 73.7943 27.8575 73.0449 28.0358 72.2271 28.2733 Z M 86.8397 39.7681 L 86.8397 38.7811 L 86.7407 38.7811 C 86.5142 38.7811 86.3388 38.73 86.2143 38.628 C 86.0899 38.5262 86.0275 38.3848 86.0275 38.2093 C 86.0275 38.1158 86.0505 37.9689 86.093 37.7734 C 86.1378 37.5786 86.2004 37.3717 86.2767 37.1568 L 88.1495 31.8776 C 88.4747 32.7773 88.7777 33.6263 89.0521 34.4271 C 89.3293 35.2247 89.5808 35.9799 89.8072 36.6931 L 89.5073 37.7793 C 89.4138 38.1274 89.2871 38.3791 89.1286 38.5401 C 88.9671 38.7014 88.7607 38.7811 88.5059 38.7811 L 88.4154 38.7811 L 88.4154 39.7681 L 93.2051 39.7681 L 93.2051 38.7811 L 93.0328 38.7811 C 92.7669 38.7811 92.5631 38.7269 92.427 38.6195 C 92.2887 38.5121 92.2175 38.3508 92.2175 38.1359 C 92.2175 38.0509 92.2292 37.9573 92.249 37.8553 C 92.2686 37.7541 92.3111 37.5925 92.376 37.3717 L 93.8843 31.8436 C 94.7356 34.2686 95.2761 35.8469 95.5052 36.5709 C 95.7345 37.2983 95.8504 37.7478 95.8504 37.9179 C 95.8504 38.2178 95.7685 38.4355 95.6041 38.5741 C 95.4431 38.713 95.1797 38.7811 94.8203 38.7811 L 94.7469 38.7811 L 94.7469 39.7681 L 98.1621 39.7681 L 98.1621 38.7811 C 97.8846 38.7471 97.6581 38.6731 97.4772 38.5571 C 97.2989 38.4412 97.1629 38.2774 97.0756 38.0679 C 97.0214 37.9463 96.8774 37.5245 96.6455 36.8005 C 96.4131 36.0763 96.2209 35.4875 96.0738 35.0351 C 95.7572 34.073 95.3357 32.8343 94.8036 31.3149 C 94.0762 29.2354 93.689 27.9677 93.6434 27.5097 L 92.393 27.5097 L 90.2375 34.7777 C 90.093 34.376 89.8951 33.8071 89.6403 33.08 C 88.5314 29.886 87.9486 28.0298 87.8922 27.5097 L 86.65 27.5097 L 83.2096 37.3382 C 83.0543 37.785 82.8873 38.1158 82.709 38.3281 C 82.5279 38.5432 82.2986 38.6929 82.0157 38.7811 L 82.0157 39.7681 Z M 99.0646 27.75 L 99.0646 28.7376 C 99.5964 28.794 99.9496 28.9069 100.131 29.0798 C 100.309 29.2552 100.3995 29.6031 100.3995 30.1263 L 100.3995 37.3887 C 100.3995 37.9148 100.309 38.2632 100.131 38.4386 C 99.9496 38.611 99.5964 38.7241 99.0646 38.7811 L 99.0646 39.7681 L 108.4969 39.7681 L 108.4969 37.2898 L 107.5856 37.2898 C 107.3477 37.8244 107.0138 38.2178 106.5841 38.4642 C 106.1512 38.7099 105.5854 38.8315 104.8839 38.8315 C 104.2333 38.8315 103.8144 38.7896 103.6335 38.7045 C 103.4495 38.6167 103.3591 38.3791 103.3591 37.986 L 103.3591 34.6615 L 104.6265 34.6615 C 105.1807 34.6615 105.5996 34.7717 105.8879 34.9926 C 106.1739 35.2131 106.3553 35.5725 106.4256 36.0706 L 107.4132 36.0706 L 107.4132 32.0754 L 106.4341 32.0754 C 106.3777 32.5794 106.1969 32.9672 105.8879 33.2354 C 105.5772 33.5075 105.1583 33.6433 104.6265 33.6433 L 103.3591 33.6433 L 103.3591 30.3412 C 103.3591 29.8125 103.4719 29.4392 103.6953 29.2238 C 103.9192 29.0089 104.3206 28.9015 104.9009 28.9015 C 105.6677 28.9015 106.3576 29.0769 106.9719 29.4307 C 107.5856 29.7842 108.0918 30.299 108.4969 30.9725 L 109.4499 30.9725 L 108.7373 27.75 Z M 110.336 27.75 L 110.336 28.7376 C 110.8678 28.794 111.221 28.9069 111.4024 29.0798 C 111.5804 29.2552 111.6709 29.6031 111.6709 30.1263 L 111.6709 37.3887 C 111.6709 37.9148 111.5804 38.2632 111.4024 38.4386 C 111.221 38.611 110.8678 38.7241 110.336 38.7811 L 110.336 39.7681 L 119.7683 39.7681 L 119.7683 37.2898 L 118.857 37.2898 C 118.6191 37.8244 118.2852 38.2178 117.8555 38.4642 C 117.4226 38.7099 116.8571 38.8315 116.1553 38.8315 C 115.5047 38.8315 115.0858 38.7896 114.9049 38.7045 C 114.7209 38.6167 114.6305 38.3791 114.6305 37.986 L 114.6305 34.6615 L 115.8979 34.6615 C 116.4521 34.6615 116.871 34.7717 117.1593 34.9926 C 117.4453 35.2131 117.6267 35.5725 117.697 36.0706 L 118.6846 36.0706 L 118.6846 32.0754 L 117.7055 32.0754 C 117.6491 32.5794 117.4683 32.9672 117.1593 33.2354 C 116.8486 33.5075 116.4297 33.6433 115.8979 33.6433 L 114.6305 33.6433 L 114.6305 30.3412 C 114.6305 29.8125 114.7433 29.4392 114.967 29.2238 C 115.1906 29.0089 115.592 28.9015 116.1723 28.9015 C 116.9391 28.9015 117.6293 29.0769 118.2433 29.4307 C 118.857 29.7842 119.3632 30.299 119.7683 30.9725 L 120.7213 30.9725 L 120.0087 27.75 Z M 129.1581 30.8251 L 129.1581 30.2593 C 129.1581 29.9509 129.1694 29.7221 129.1918 29.5722 C 129.2151 29.4222 129.2513 29.3057 129.3077 29.2238 C 129.424 29.0313 129.6162 28.8876 129.882 28.794 C 130.1511 28.7005 130.4909 28.6526 130.9068 28.6526 L 131.0057 28.6526 L 131.0057 27.75 L 124.3517 27.75 L 124.3517 28.6526 L 124.4591 28.6526 C 124.8749 28.6526 125.2142 28.7005 125.4776 28.794 C 125.7435 28.8876 125.9328 29.0313 126.0488 29.2238 C 126.1054 29.3057 126.1454 29.4222 126.1704 29.5722 C 126.1959 29.7221 126.2072 29.9509 126.2072 30.2593 L 126.2072 30.8251 L 126.2072 38.6816 L 125.0303 38.6816 C 124.357 38.6816 123.8309 38.5206 123.4517 38.1977 C 123.0727 37.8723 122.7557 37.3096 122.5009 36.5091 L 121.5649 36.5091 L 121.9212 39.7681 L 133.5489 39.7681 L 133.8233 36.5091 L 132.9123 36.5091 C 132.7229 37.2983 132.4284 37.8584 132.0296 38.1892 C 131.6279 38.5177 131.0397 38.6816 130.2585 38.6816 L 129.1581 38.6816 Z M 135.2662 28.2733 L 135.2662 31.2664 L 136.2027 31.2664 C 136.3808 30.4379 136.7345 29.7955 137.2717 29.3397 C 137.8066 28.8845 138.4741 28.6551 139.2693 28.6551 C 139.8492 28.6551 140.3303 28.8136 140.7067 29.1302 C 141.0857 29.4503 141.2751 29.8491 141.2751 30.3304 C 141.2751 31.0034 140.5083 31.7648 138.9781 32.6078 C 138.5708 32.8397 138.2539 33.0205 138.0331 33.1481 C 136.9551 33.7762 136.2251 34.3505 135.8433 34.8681 C 135.4586 35.3829 135.2662 35.9969 135.2662 36.7098 C 135.2662 37.7595 135.6511 38.5855 136.4176 39.1884 C 137.1872 39.7911 138.2394 40.091 139.5748 40.091 C 140.2115 40.091 140.8198 40 141.4001 39.822 C 141.9797 39.6405 142.5538 39.3639 143.1227 38.99 L 143.1227 36.6109 L 142.2425 36.6109 C 142.0671 37.3637 141.7192 37.9604 141.2076 38.4046 C 140.6923 38.8485 140.0924 39.0725 139.4079 39.0725 C 138.8676 39.0725 138.4262 38.9333 138.0869 38.6592 C 137.7471 38.3817 137.5775 38.0285 137.5775 37.5979 C 137.5775 36.9334 138.3554 36.1976 139.9147 35.386 L 139.9737 35.352 C 140.0499 35.312 140.169 35.2531 140.3303 35.168 C 141.2101 34.7207 141.8581 34.3276 142.2797 33.9826 C 142.7207 33.6263 143.06 33.2186 143.2981 32.7688 C 143.5354 32.3189 143.6545 31.8521 143.6545 31.3659 C 143.6545 30.2114 143.2695 29.2861 142.4974 28.5962 C 141.7277 27.9054 140.6869 27.5607 139.377 27.5607 C 138.8197 27.5607 138.1997 27.6199 137.5152 27.7384 C 136.8334 27.8575 136.0837 28.0358 135.2662 28.2733 " fill="#1f1a17"/>
<path transform="matrix(1,0,0,-1,0,144)" d="M 114.446 99.2446 L 114.446 98.3625 C 113.3215 97.2935 112.2026 96.2756 111.0932 95.3031 C 109.9837 94.3299 108.6418 93.2434 107.0569 92.0435 C 106.2462 90.7974 105.5526 89.7795 104.9649 88.9832 C 104.383 88.1921 103.8813 87.533 103.4555 87.0097 C 103.0303 86.4859 102.8129 86.2186 102.8024 86.2075 C 102.6609 86.0196 102.4325 85.8322 102.1037 85.6443 C 101.7794 85.4563 101.5058 85.36 101.2884 85.36 C 100.9843 85.36 100.7257 85.485 100.5233 85.7353 C 100.3204 85.9856 100.22 86.2815 100.22 86.6285 C 100.22 87.5154 100.6347 88.4656 101.4656 89.4665 C 102.2961 90.4731 103.5116 91.5026 105.1169 92.5608 C 105.9069 93.8353 106.6615 95.1265 107.3857 96.4174 C 108.1054 97.7145 108.7381 98.892 109.275 99.9615 C 109.8173 101.0248 110.3134 102.0773 110.7692 103.1125 C 110.0551 102.4413 109.3459 101.8046 108.6471 101.1844 C 107.943 100.5695 107.2542 99.9782 106.5861 99.4207 C 105.912 98.858 105.497 98.511 105.3397 98.3747 C 105.1778 98.2431 105.0412 98.1298 104.925 98.0271 C 103.2026 96.338 101.9163 95.4958 101.0656 95.4958 C 100.2549 95.4958 99.5712 95.9287 99.0196 96.7989 C 98.4674 97.6635 98.1884 98.7554 98.1884 100.0809 C 98.1884 100.9114 98.3055 101.7816 98.5433 102.6856 C 98.7812 103.5901 99.146 104.5233 99.6372 105.4789 C 100.1237 106.4339 100.7107 107.3554 101.3944 108.2432 C 102.073 109.1307 102.8279 109.95 103.6485 110.6949 C 104.9145 111.8271 106.3327 112.839 107.9025 113.7322 C 109.4777 114.6251 110.9412 115.3134 112.2985 115.7856 C 113.6509 116.2579 114.6484 116.4909 115.2921 116.4909 C 115.6666 116.4909 115.9705 116.3886 116.1879 116.1836 C 116.4112 115.9792 116.5731 115.7003 116.6641 115.348 C 116.7605 115.0007 116.8061 114.6308 116.8061 114.2444 C 116.8061 113.8856 116.7052 113.5332 116.5071 113.1744 C 116.2239 112.697 115.717 112.1964 114.9985 111.6675 C 114.2742 111.1382 113.5446 110.6719 112.8152 110.2683 C 112.0808 109.8643 111.6609 109.6594 111.5538 109.6594 C 111.4934 109.6594 111.4625 109.6824 111.4625 109.728 C 111.4625 109.8303 111.5793 109.9894 111.8072 110.2113 C 112.0351 110.4333 112.2831 110.6606 112.5621 110.8939 C 113.1746 111.4172 113.5395 111.9691 113.6455 112.5601 C 106.6895 112.1754 100.2501 106.4273 100.2501 99.1423 C 100.2501 98.778 100.3564 98.4594 100.5639 98.1867 C 100.7717 97.9132 101.05 97.7769 101.4049 97.7769 C 101.8199 97.7769 102.3369 97.9818 102.9492 98.3917 C 103.6131 98.841 104.3422 99.4096 105.1373 100.1032 C 105.9324 100.7974 106.6666 101.4571 107.3404 102.0773 C 108.0139 102.6972 108.7381 103.3852 109.5233 104.125 C 110.2425 104.8076 110.8043 105.3536 111.2051 105.7689 C 111.6048 106.1841 111.9039 106.5478 112.1012 106.8608 C 112.5164 107.5039 112.9317 107.8792 113.3422 107.9756 C 113.7518 108.0782 114.1013 107.9872 114.3955 107.7029 C 114.6889 107.4186 114.8309 107.0711 114.8309 106.6618 C 114.8309 106.5254 114.618 106.0075 114.1877 105.1036 C 113.7569 104.199 113.0987 102.8852 112.2126 101.1674 C 111.3316 99.4552 110.2374 97.4299 108.9405 95.0975 C 110.0906 95.7864 111.9237 97.1683 114.446 99.2446 " fill="#1f1a17"/>
<path transform="matrix(1,0,0,-1,0,144)" d="M 102.6164 104.2174 L 102.6164 104.4564 C 104.1483 106.2694 105.2033 107.5431 105.7779 108.2701 C 105.9083 109.0894 106.2247 109.499 106.723 109.499 C 106.8474 109.499 106.9815 109.4581 107.1213 109.3796 L 107.176 109.1883 C 107.1519 109.1098 107.1394 108.9938 107.1394 108.8504 C 107.1394 108.7203 107.1825 108.4884 107.2704 108.1437 C 107.3554 107.7987 107.4223 107.5119 107.4708 107.2766 C 107.5167 107.0442 107.5411 106.7814 107.5411 106.488 C 107.5411 106.0475 107.4523 105.6237 107.2732 105.2209 C 107.0969 104.8181 106.8389 104.4323 106.4982 104.0604 C 106.1609 103.6916 105.726 103.3129 105.1911 102.9271 C 105.4037 102.886 105.5741 102.8656 105.6986 102.8656 C 105.942 102.8656 106.2034 102.9336 106.4863 103.0706 C 106.7686 103.2069 107.0575 103.3914 107.3492 103.6202 C 107.6443 103.8521 107.9881 104.1489 108.3767 104.5142 L 108.3767 103.8453 C 107.6168 103.0124 106.939 102.3809 106.3397 101.9506 C 105.7385 101.5203 105.2212 101.3051 104.7895 101.3051 C 104.2302 101.3051 103.7134 101.5716 103.2392 102.1045 C 102.9597 102.4254 102.7868 102.7321 102.7193 103.026 C 102.6499 103.3194 102.6164 103.7157 102.6164 104.2174 Z M 105.9389 105.7467 L 105.7779 107.208 C 105.4103 106.7403 104.6256 105.8428 103.4189 104.5179 C 103.7744 104.4295 104.0179 104.313 104.1483 104.1664 C 104.2792 104.0196 104.4646 103.7361 104.7016 103.3163 C 105.1058 103.5037 105.4162 103.7565 105.6319 104.0811 C 105.8479 104.4054 105.9574 104.8456 105.9574 105.4054 C 105.9574 105.4738 105.9574 105.5353 105.9545 105.5863 C 105.9508 105.6413 105.9449 105.6923 105.9389 105.7467 " fill="#1f1a17"/>
</g>
</svg>
